HIERARCHY
ROOT root
{
	OFFSET 0.000000 0.000000 0.000000
	CHANNELS 6 Xposition Yposition Zposition Zrotation Yrotation Xrotation
	JOINT lhip
	{
		OFFSET 0.058581 -0.082280 -0.017664
		CHANNELS 3 Zrotation Yrotation Xrotation
		JOINT lknee
		{
			OFFSET 0.043451 -0.386469 0.008037
			CHANNELS 3 Zrotation Yrotation Xrotation
			JOINT lankle
			{
				OFFSET -0.014790 -0.426874 -0.037428
				CHANNELS 3 Zrotation Yrotation Xrotation
				JOINT ltoe
				{
					OFFSET 0.041054 -0.060286 0.122042
					CHANNELS 3 Zrotation Yrotation Xrotation
					End Site
					{
						OFFSET 0.000000 0.000000 0.000000
					}
				}
			}
		}
	}
	JOINT rhip
	{
		OFFSET -0.060310 -0.090513 -0.013543
		CHANNELS 3 Zrotation Yrotation Xrotation
		JOINT rknee
		{
			OFFSET -0.043257 -0.383688 -0.004843
			CHANNELS 3 Zrotation Yrotation Xrotation
			JOINT rankle
			{
				OFFSET 0.019056 -0.420046 -0.034562
				CHANNELS 3 Zrotation Yrotation Xrotation
				JOINT rtoe
				{
					OFFSET -0.034840 -0.062106 0.130323
					CHANNELS 3 Zrotation Yrotation Xrotation
					End Site
					{
						OFFSET 0.000000 0.000000 0.000000
					}
				}
			}
		}
	}
	JOINT lowerback
	{
		OFFSET 0.004439 0.124404 -0.038385
		CHANNELS 3 Zrotation Yrotation Xrotation
		JOINT upperback
		{
			OFFSET 0.004488 0.137956 0.026820
			CHANNELS 3 Zrotation Yrotation Xrotation
			JOINT chest
			{
				OFFSET -0.002265 0.056032 0.002855
				CHANNELS 3 Zrotation Yrotation Xrotation
				JOINT lowerneck
				{
					OFFSET -0.013390 0.211636 -0.033468
					CHANNELS 3 Zrotation Yrotation Xrotation
					JOINT upperneck
					{
						OFFSET 0.010113 0.088937 0.050410
						CHANNELS 3 Zrotation Yrotation Xrotation
						End Site
						{
							OFFSET 0.000000 0.000000 0.000000
						}
					}
				}
				JOINT lclavicle
				{
					OFFSET 0.071702 0.114000 -0.018898
					CHANNELS 3 Zrotation Yrotation Xrotation
					JOINT lshoulder
					{
						OFFSET 0.122921 0.045205 -0.019046
						CHANNELS 3 Zrotation Yrotation Xrotation
						JOINT lelbow
						{
							OFFSET 0.255332 -0.015649 -0.022946
							CHANNELS 3 Zrotation Yrotation Xrotation
							JOINT lwrist
							{
								OFFSET 0.265709 0.012698 -0.007375
								CHANNELS 3 Zrotation Yrotation Xrotation
								End Site
								{
									OFFSET 0.000000 0.000000 0.000000
								}
							}
						}
					}
				}
				JOINT rclavicle
				{
					OFFSET -0.082954 0.112472 -0.023707
					CHANNELS 3 Zrotation Yrotation Xrotation
					JOINT rshoulder
					{
						OFFSET -0.113228 0.046853 -0.008472
						CHANNELS 3 Zrotation Yrotation Xrotation
						JOINT relbow
						{
							OFFSET -0.260127 -0.014369 -0.031269
							CHANNELS 3 Zrotation Yrotation Xrotation
							JOINT rwrist
							{
								OFFSET -0.269108 0.006794 -0.006027
								CHANNELS 3 Zrotation Yrotation Xrotation
								End Site
								{
									OFFSET 0.000000 0.000000 0.000000
								}
							}
						}
					}
				}
			}
		}
	}
}
MOTION
Frames: 9
Frame Time: 0.033333
1.144368 0.175810 1.119079 -86.005578 2.415259 87.303134 -0.576311 0.100807 6.890719 -2.812573 -14.412955 0.948461 8.206579 9.408916 -17.582205 0.000000 -0.000000 0.000000 3.246924 -1.438260 2.871483 4.084207 2.866546 7.666923 1.906326 -4.229264 -13.637870 0.000000 -0.000000 0.000000 -3.128799 1.487215 3.293444 2.331212 -2.708231 2.493495 1.787476 -1.460533 4.697715 6.272572 0.905036 5.525461 3.216089 -2.107898 9.636883 -24.366728 6.410966 4.222478 -62.352845 -5.886647 7.779718 10.841059 -25.715553 4.093879 -2.611583 -1.506686 -10.033844 22.573247 -4.756954 2.918238 62.051691 1.849762 9.942144 -14.751494 23.295246 -4.721709 8.490062 0.216759 -11.999879 
1.142825 0.175817 1.119301 -85.615817 2.765427 86.931377 -0.008392 0.241121 7.480114 -2.948268 -14.706340 0.745149 7.820651 9.101267 -17.457044 0.000000 -0.000000 0.000000 3.733965 -2.055972 3.668833 3.877961 3.202167 7.140477 1.937113 -4.412792 -13.586238 0.000000 -0.000000 0.000000 -2.879671 1.178925 3.273319 2.332454 -2.825827 2.850740 1.829535 -1.505060 4.762139 6.240169 1.137702 5.138069 3.139720 -2.048408 9.587197 -24.268072 6.437596 4.211941 -62.463935 -5.766370 7.774888 10.967400 -25.696905 4.195975 -2.454087 -1.624841 -10.311415 22.522948 -4.760938 2.803039 62.143402 1.803673 9.950271 -14.754884 23.318903 -4.485975 8.441759 0.090072 -12.010206 
1.143017 0.175506 1.119264 -85.705104 2.759242 86.921535 -0.057882 0.263410 7.564496 -2.911287 -14.757146 0.623686 7.760584 9.170774 -17.504277 0.000000 -0.000000 0.000000 3.780855 -1.804006 3.682957 3.789778 3.160657 7.100858 1.920659 -4.538854 -13.625032 0.000000 -0.000000 0.000000 -2.937669 1.173416 3.137672 2.328373 -2.819819 2.902183 1.836973 -1.527860 4.876047 6.258846 1.059857 5.414207 3.221788 -2.038287 9.370620 -24.132885 6.476118 4.280539 -62.629372 -5.701592 7.825276 11.141890 -25.641185 4.341472 -2.503643 -1.567806 -10.514329 22.463126 -4.729915 2.845139 62.183859 1.975697 9.963747 -14.624274 23.217416 -4.336709 8.473117 0.142958 -12.064031 
1.143291 0.175237 1.119188 -85.738203 2.795189 86.934832 -0.034984 0.254863 7.569826 -2.929724 -14.738910 0.613223 7.794123 9.118313 -17.460009 0.000000 -0.000000 0.000000 3.784906 -1.879666 3.656240 3.787632 3.275958 7.089824 1.931726 -4.481914 -13.624248 0.000000 -0.000000 0.000000 -2.892031 1.141776 3.128174 2.317350 -2.808405 2.891323 1.813969 -1.502328 4.851202 6.228779 1.185394 5.114157 3.098551 -2.010658 9.574414 -24.176984 6.505530 4.234625 -62.602948 -5.636212 7.789776 11.272935 -25.439793 4.074602 -2.863996 -2.075777 -11.085308 22.582168 -4.798724 2.858398 62.128003 2.009811 10.027311 -14.712422 23.188009 -4.400968 8.513046 0.210747 -12.185017 
1.143454 0.175148 1.119131 -85.742005 2.816548 86.891064 -0.028895 0.356078 7.581057 -2.921496 -14.851612 0.680176 7.799585 9.136868 -17.494734 0.000000 -0.000000 0.000000 3.796767 -1.896607 3.651139 3.778644 3.194652 7.164392 1.949064 -4.450067 -13.697459 0.000000 -0.000000 0.000000 -2.921245 1.127289 3.206061 2.335052 -2.829066 2.826853 1.852853 -1.486087 4.841164 6.336728 0.972715 5.330610 3.164090 -2.170660 9.594592 -24.231104 6.530599 4.220872 -62.551052 -5.615505 7.719043 11.150042 -25.285660 4.094635 -2.807713 -1.623498 -10.597452 22.496999 -4.821920 2.815487 62.224097 1.985636 9.929615 -14.717240 23.189907 -4.424928 8.640680 0.067636 -12.026205 
1.143796 0.174940 1.119226 -85.735689 2.837002 86.838840 -0.049710 0.346532 7.572077 -2.925523 -14.908916 0.788095 7.813089 9.188300 -17.538538 0.000000 -0.000000 0.000000 3.842253 -1.744632 3.659005 3.756043 3.199995 7.214785 1.899109 -4.618370 -13.808714 0.000000 -0.000000 0.000000 -2.899630 1.064436 3.242848 2.297043 -2.795381 2.794380 1.842191 -1.479589 4.902487 6.279065 1.065702 5.011380 3.110857 -2.158353 9.591103 -24.303886 6.512057 4.135942 -62.461712 -5.617101 7.685703 11.079674 -25.055363 4.013394 -2.794224 -1.544334 -10.565113 22.650353 -4.757126 2.761330 62.125600 1.955348 9.977672 -14.785224 23.108210 -4.543300 8.573321 0.112148 -11.990044 
1.144158 0.174942 1.119171 -85.794316 2.881632 86.808347 -0.052468 0.183965 7.578187 -2.893716 -14.889102 0.815459 7.850398 9.336548 -17.675012 0.000000 -0.000000 0.000000 3.902198 -1.806622 3.595224 3.727765 3.263071 7.335222 1.933512 -4.568180 -13.860380 0.000000 -0.000000 0.000000 -2.850496 1.094165 3.286807 2.271775 -2.781708 2.750312 1.798807 -1.500351 4.957753 6.175719 1.487952 4.977145 3.037015 -1.955040 9.777083 -24.280897 6.486987 3.997618 -62.478409 -5.542580 7.749201 11.059687 -24.732675 4.029150 -2.760902 -1.788327 -10.505557 22.716529 -4.819975 2.721602 62.127648 2.011653 10.074696 -14.807896 23.057356 -4.532772 8.545827 0.255654 -12.053017 
1.144647 0.174723 1.118989 -85.691122 2.920121 86.823671 -0.052878 0.071487 7.352706 -2.967985 -14.947704 1.165513 7.775758 9.446571 -17.822215 0.000000 -0.000000 0.000000 3.974817 -1.720451 3.431399 3.698766 3.235192 7.589559 1.915911 -4.673347 -14.033321 0.000000 -0.000000 0.000000 -2.854519 1.057092 3.243240 2.297016 -2.832661 2.803976 1.780001 -1.533983 5.025916 6.171893 1.524246 4.600752 3.006667 -2.117061 9.944281 -24.199359 6.401444 4.010949 -62.573105 -5.599255 7.822282 11.131884 -24.633752 3.922471 -2.733616 -1.775398 -10.547531 22.718287 -4.746165 2.567950 62.134835 2.033614 10.148099 -14.805433 22.894113 -4.499199 8.527855 0.251998 -12.048919 
1.144670 0.174677 1.118885 -85.661280 2.961019 86.672366 -0.084720 0.019806 7.272681 -3.007840 -15.112970 1.713226 7.825169 9.591970 -18.201732 0.000000 -0.000000 0.000000 4.051285 -1.620722 3.436839 3.667702 3.093253 7.916497 1.908344 -4.723784 -14.219212 0.000000 -0.000000 0.000000 -2.903579 1.055464 3.363247 2.368904 -2.867430 2.743911 1.793814 -1.565452 4.980453 6.371842 0.829612 5.483865 3.092120 -2.499640 10.199645 -24.146200 6.429148 4.217736 -62.677155 -5.679773 7.775852 11.167603 -24.550769 3.918896 -2.853679 -1.645869 -10.542103 22.520823 -4.732204 2.586665 62.267268 2.018789 10.054839 -14.693365 22.809717 -4.352026 8.612732 0.231117 -12.069850 
